<?xml version="1.0" encoding="utf-8"?>
<!-- Generator: Adobe Illustrator 23.0.0, SVG Export Plug-In . SVG Version: 6.00 Build 0)  -->
<svg version="1.1" xmlns="http://www.w3.org/2000/svg" xmlns:xlink="http://www.w3.org/1999/xlink" x="0px" y="0px"
	 viewBox="0 0 1024 1024" style="enable-background:new 0 0 1024 1024;" xml:space="preserve">
<style type="text/css">
	.st0{fill:#FFFFFF;}
</style>
<g id="BG">
	<rect width="1024" height="1024"/>
</g>
<g id="图层_2">
	<g>
		<path class="st0" d="M80.22,703.91c-1.85,0-3.91,4.4-5.86,13.18c-1.95,8.79-2.93,17.75-2.93,26.89
			c0,34.46,10.11,63.54,30.35,87.27c20.23,23.73,45.09,35.59,74.55,35.59c42.24,0,88.7-37.08,139.38-111.26
			c11.59-16.52,24.46-38.31,38.61-65.38c28.09-52.73,50.49-93.86,67.19-123.38l8.84-16.35h-57.21l3.54-9.49
			c18.87,0,38.24,0.35,58.1,1.05c57.61-114.59,113.49-198.34,167.66-251.25c54.16-52.9,111.43-79.7,171.79-80.41
			c13.96-4.92,27.03-7.38,39.22-7.38c27.33,0,40.99,7.91,40.99,23.73c0,6.33-2.06,9.49-6.19,9.49c-1.77,0-8.36-2.11-19.76-6.33
			c-21.04-7.73-38.54-11.6-52.5-11.6c-31.66,17.23-59.62,50.62-83.9,100.18c-24.28,49.56-51.96,129.89-83.02,240.97
			c-47.58,170.5-108.53,271.21-182.85,302.14c15.54,4.22,29.02,6.33,40.44,6.33c36.2,0,66.6-20.76,91.2-62.3
			c23.8-40.12,43.58-82.72,59.32-127.78c1.77-4.93,3.15-7.39,4.13-7.39c1.18,0,1.87,0.71,2.06,2.11c0,5.28-11.31,32.56-33.93,81.84
			c-21.05,46.11-40.23,77.88-57.54,95.3c-17.31,17.42-38.46,26.13-63.44,26.13c-14.36,0-31.87-3.69-52.53-11.07
			c-12.59,7.38-27.05,11.07-43.38,11.07c-11.41,0-17.11-3.69-17.11-11.07c0-8.44,7.67-12.65,23-12.65c10.81,0,23.3,1.76,37.45,5.27
			c30.47-13,53.53-34.45,69.16-64.33c15.63-29.87,45.76-110.73,90.39-242.55H461.9c-48.17,90.69-85.43,155.2-111.77,193.51
			c-61.54,89.29-119.54,133.93-174,133.93c-31.07,0-57.46-13.01-79.19-39.02c-21.73-26.01-32.59-57.65-32.59-94.91
			c0-19.33,3.29-35.86,9.88-49.57c6.58-13.71,20.98-20.67,24.04-20.56c8.43,0.29-1.03,14.33-3.31,18.16
			C92.61,695.97,84.8,703.91,80.22,703.91z M538.73,322.42c0,3.88-3.64,13.22-10.92,28.03c-20.08,41.25-39.08,61.87-57,61.87
			c-11.42,0-20.72-7.12-27.91-21.35c-7.19-14.24-10.78-32.96-10.78-56.16c0-19.68,6.49-51.49,19.46-95.44
			c6.09-20.38,9.14-37.26,9.14-50.62c0-17.57-5.46-32.6-16.37-45.08c-10.91-12.47-24.23-18.72-39.96-18.72
			c-45.03,0-86.76,30.94-125.19,92.8c-38.44,61.87-57.66,128.84-57.66,200.9c0,36.56,6.44,66.44,19.33,89.64
			c12.89,23.2,29.57,34.8,50.03,34.8c22.23,0,44.62-14.5,67.14-43.5c22.53-29,38.42-63.88,47.67-104.67
			c0.59-3.51,1.37-5.27,2.36-5.27c1.77,0,2.65,1.76,2.65,5.27c0,7.38-3.45,20.48-10.33,39.28c-6.88,18.81-13.97,34.54-21.25,47.19
			c-26.56,46.76-56.37,70.13-89.43,70.13c-22.43,0-40.44-12.3-54.01-36.91c-13.58-24.6-20.36-57.29-20.36-98.08
			c0-74.17,20-142.89,60.02-206.17c40.01-63.27,83.41-94.91,130.21-94.91c20.64,0,36.81,9.15,48.51,27.42
			c11.69,18.28,17.55,43.42,17.55,75.4c0,23.91-4.72,52.2-14.16,84.89c-8.46,29.88-12.68,50.09-12.68,60.64
			c0,26.02,8.66,39.02,25.99,39.02c19.69,0,40.07-26.09,61.14-78.29c1.77-4.22,3.25-6.34,4.43-6.34
			C537.94,318.2,538.73,319.61,538.73,322.42z M760.95,220.39c-51.32,4.57-98.9,30.94-142.74,79.09
			c-43.85,48.16-94.37,129.01-151.59,242.55h111.77c25.16-78.38,55.54-148.69,91.13-210.91
			C704.51,269.26,734.99,232.35,760.95,220.39z"/>
	</g>
	<g>
		<path class="st0" d="M962.11,653.36c0,8.18-7.51,12.27-22.52,12.27c-11.84,0-39.97-5.49-84.4-16.48
			c-20.75,11.84-31.12,26.73-31.12,44.67c0,8.67,2.99,14.65,8.97,17.94c8.66-0.73,15.2-1.1,19.59-1.1c12.69,0,19.04,1.53,19.04,4.58
			c0,1.95-3.36,2.93-10.08,2.93c-8.56,0-17.84-1.22-27.86-3.66c-13.57,1.95-29.33,7.2-47.29,15.75
			c-45.71,21.85-68.56,50.17-68.56,84.95c0,23.07,12.45,37.72,37.35,43.94c-4.52-7.44-6.77-16.05-6.77-25.81
			c0-24.04,12.28-46.2,36.84-66.46c24.56-20.26,51.44-30.39,80.65-30.39c13.44,0,24.13,3.29,32.07,9.89
			c7.94,6.59,11.92,15.44,11.92,26.55c0,23.8-13.08,45.25-39.23,64.35c-26.15,19.1-55.61,28.65-88.36,28.65
			c-6.6,0-12.77-0.37-18.51-1.1c11.74,15.75,29.17,23.62,52.29,23.62c14.31,0,25.99-2.14,35.04-6.41l2.2-0.37
			c0.73,0.24,1.1,0.73,1.1,1.46c0,1.71-4.53,3.51-13.57,5.4c-9.05,1.89-17.3,2.84-24.76,2.84c-25.56,0-45.06-9.22-58.51-27.65
			c-18.62-4.15-33.19-11.2-43.71-21.15c-10.53-9.95-15.79-21.51-15.79-34.69c0-17.7,7.32-34.27,21.97-49.71
			c14.65-15.44,34.17-27.13,58.59-35.06c14.77-4.88,31.67-8.42,50.71-10.62c-13.55-5.74-20.32-14.83-20.32-27.28
			c0-15.99,9.89-29.35,29.66-40.09c-28.32-6.83-51.69-10.25-70.12-10.25c-36.13,0-66.92,9.03-92.37,27.1
			c-25.45,18.06-38.17,39.91-38.17,65.54c0,11.47,3.36,21.3,10.07,29.48c6.71,8.18,14.77,12.27,24.17,12.27
			c6.47,0,9.7-1.04,9.7-3.11c0-1.1-1.16-1.46-3.48-1.1c-6.47,0-9.7-2.99-9.7-8.97c0-3.42,1.43-6.35,4.3-8.79
			c2.87-2.44,6.32-3.66,10.34-3.66c7.81,0,11.72,3.79,11.72,11.35c0,5.01-2.23,9.25-6.68,12.72c-4.46,3.48-9.86,5.22-16.2,5.22
			c-11.35,0-21.03-5.1-29.02-15.29c-8-10.19-11.99-22.49-11.99-36.89c0-21.6,9.4-41.44,28.2-59.5c22.34-21.48,53.7-32.22,94.1-32.22
			c22.46,0,52.36,4.58,89.71,13.73c16.84-8.18,36.43-12.27,58.77-12.27c16.6,0,30.76,2.23,42.48,6.68
			C956.25,641.61,962.11,647.01,962.11,653.36z M906.64,771.44c0-8.79-3.48-16.05-10.45-21.79c-6.97-5.74-15.76-8.6-26.39-8.6
			c-26.27,0-51.94,10.89-76.99,32.68c-25.05,21.79-37.58,44.03-37.58,66.73c0,6.59,2.02,13.31,6.05,20.14
			c7.09,1.34,13.62,2.01,19.61,2.01c28.84,0,57-9.98,84.5-29.93C892.89,812.73,906.64,792.32,906.64,771.44z M958.27,652.99
			c0-4.76-5.04-8.97-15.1-12.63c-10.07-3.66-21.64-5.49-34.69-5.49c-17.94,0-34.3,3.91-49.07,11.72
			c32.34,10.5,59.56,15.75,81.66,15.75C952.53,662.33,958.27,659.21,958.27,652.99z"/>
	</g>
	<path class="st0" d="M154.95,721.55c-3.61,0.57-14.3,2.72-23.57,12c-9.24,9.25-11.39,19.92-11.96,23.53
		c-0.58-3.62-2.77-14.4-12.15-23.68c-9.19-9.1-19.73-11.26-23.38-11.84c2.56-0.04,14.78-0.53,24.79-10.43
		c10.21-10.09,10.69-22.61,10.73-25.1c1.1,4.28,4.21,14.01,13.06,22.78C141.14,717.39,150.66,720.45,154.95,721.55z"/>
	<g>
	</g>
	<g>
	</g>
	<g>
	</g>
	<g>
	</g>
	<g>
	</g>
</g>
</svg>
